<?xml version="1.0" standalone="no"?>
<!DOCTYPE svg PUBLIC "-//W3C//DTD SVG 20010904//EN"
 "http://www.w3.org/TR/2001/REC-SVG-20010904/DTD/svg10.dtd">
<svg version="1.0" xmlns="http://www.w3.org/2000/svg"
 width="225.000000pt" height="225.000000pt" viewBox="0 0 225.000000 225.000000"
 preserveAspectRatio="xMidYMid meet">

<g transform="translate(0.000000,225.000000) scale(0.100000,-0.100000)"
fill="#000000" stroke="none">
<path d="M1062 1938 c-19 -19 -14 -35 22 -70 51 -49 52 -67 9 -123 -32 -40
-38 -56 -38 -95 0 -39 6 -55 38 -95 43 -56 42 -74 -9 -124 -37 -35 -40 -57
-13 -74 26 -16 84 26 109 79 29 59 22 102 -25 162 -19 25 -35 48 -35 52 0 4
16 27 35 52 20 25 38 62 42 81 7 48 -28 120 -71 147 -39 23 -48 24 -64 8z"/>
<path d="M799 1680 c-61 -64 -64 -131 -10 -193 46 -52 45 -86 -5 -132 -27 -25
-34 -38 -29 -54 15 -47 95 -7 129 63 23 48 20 88 -9 127 -13 19 -32 44 -40 56
-22 29 -12 58 32 98 27 25 34 37 28 54 -11 35 -52 27 -96 -19z"/>
<path d="M1412 1695 c-63 -53 -78 -130 -37 -186 13 -19 32 -44 40 -56 22 -29
12 -58 -32 -98 -27 -25 -34 -37 -28 -54 11 -35 52 -27 96 19 61 64 64 131 10
193 -46 52 -45 85 5 131 28 26 35 38 29 55 -9 29 -46 27 -83 -4z"/>
<path d="M10 1185 c-28 -34 -3 -49 277 -169 205 -88 281 -116 293 -109 18 12
23 33 12 49 -7 11 -542 244 -560 244 -5 0 -15 -7 -22 -15z"/>
<path d="M1162 1176 c-35 -21 -51 -24 -91 -19 -34 4 -58 1 -80 -10 -28 -14
-36 -14 -66 -1 -19 8 -48 14 -65 14 -38 0 -101 -31 -117 -58 -9 -16 -22 -20
-65 -19 -32 0 -60 6 -70 15 -9 8 -38 17 -62 19 -37 5 -47 2 -52 -12 -10 -24 7
-48 41 -56 15 -5 37 -17 50 -29 18 -17 29 -19 67 -14 33 5 52 2 70 -10 32 -21
57 -11 65 26 6 31 45 68 73 68 9 0 34 -11 54 -25 46 -31 51 -31 88 0 36 31 48
31 99 3 l39 -23 33 39 c27 31 40 39 67 39 37 0 70 -31 70 -67 0 -33 19 -46 65
-46 23 0 50 -7 61 -15 29 -22 45 -18 80 20 46 51 98 45 130 -16 12 -25 21 -30
47 -29 56 3 65 1 93 -25 18 -17 33 -23 43 -18 28 13 80 7 100 -11 28 -26 63
-13 59 22 -4 38 -59 72 -117 72 -25 0 -54 7 -65 15 -10 8 -38 17 -61 20 -28 5
-51 16 -69 36 -15 16 -39 32 -52 35 -43 11 -114 -2 -139 -26 -21 -19 -27 -20
-61 -10 -24 8 -47 24 -59 43 -49 74 -130 96 -203 53z"/>
<path d="M4 796 c-21 -85 86 -195 189 -196 26 0 37 -4 37 -15 0 -8 9 -39 21
-69 28 -77 94 -146 171 -182 l63 -29 640 0 640 0 63 29 c77 36 143 105 171
182 12 30 21 61 21 69 0 11 11 15 38 15 102 1 209 111 188 196 l-6 24 -1115 0
-1115 0 -6 -24z m2154 -68 c-23 -36 -77 -58 -140 -58 -55 0 -58 -1 -63 -27
-16 -83 -28 -117 -51 -153 -31 -47 -102 -96 -153 -107 -47 -10 -1205 -10
-1252 0 -82 17 -163 98 -189 186 l-9 31 772 0 c425 0 778 4 785 9 8 4 12 19
10 32 l-3 24 -855 5 c-793 5 -858 6 -883 22 -14 10 -31 27 -37 38 -11 20 -8
20 1036 20 l1046 0 -14 -22z"/>
</g>
</svg>
